<svg width="93" height="98" viewBox="0 0 93 98" fill="none" xmlns="http://www.w3.org/2000/svg">
<mask id="mask0_8_34" style="mask-type:luminance" maskUnits="userSpaceOnUse" x="3" y="0" width="87" height="98">
<path d="M3.28333 0.382065H89.5334V97.809H3.28333V0.382065Z" fill="white"/>
</mask>
<g mask="url(#mask0_8_34)">
<path fill-rule="evenodd" clip-rule="evenodd" d="M38.4564 9.88149C38.4668 8.40098 38.5592 7.02495 39.5593 5.59668C42.1898 1.8178 46.1498 0.120891 50.6463 0.494003C51.9876 0.607429 53.4825 1.14471 54.7508 1.59095C57.2889 2.47 59.8047 4.98477 60.4754 7.58312C60.7541 8.65918 60.5678 9.72628 60.4962 10.8128C60.4649 11.2784 60.4649 11.962 60.383 12.6127C60.383 12.644 60.3725 12.6754 60.3725 12.7067V12.7485C60.2995 13.2141 60.1967 13.6484 59.991 13.9797C60.0744 14.5782 60.0908 15.1782 60.0417 15.7811C60.0223 15.9662 60.0312 16.1841 60.0118 16.402C60.2622 16.4811 60.4694 16.6273 60.6304 16.8363C60.9299 17.2094 60.991 17.7153 61.073 18.1616C61.2802 19.2376 61.301 20.2615 60.9597 21.3181C60.8822 21.5465 60.7734 21.7569 60.6304 21.9509C60.4873 22.1449 60.3174 22.3136 60.1236 22.4539C59.9284 22.5956 59.7168 22.7031 59.4872 22.7777C59.2592 22.8523 59.0237 22.8897 58.7838 22.8911C58.5677 22.8911 58.052 22.8494 57.9894 22.7464C57.66 23.409 57.6287 24.4537 57.505 25.1791C57.2472 26.7626 56.7732 28.2834 56.7732 29.9086C56.7881 30.6802 56.8597 31.4459 56.9893 32.207C57.0013 32.304 57.0192 32.401 57.0415 32.4965C57.0534 32.507 57.0668 32.5144 57.0818 32.5174C57.8553 32.9831 58.0833 33.9964 58.6496 34.6382C58.7018 34.7009 58.7629 34.7531 58.8151 34.8143L58.8464 34.8456L58.8762 34.877L58.9075 34.9083L58.9388 34.9382C59.6407 35.5904 60.4962 35.9321 61.3934 36.3262C65.3117 38.0544 69.3968 39.42 73.2852 41.2527L73.5326 41.3766C73.3776 40.7975 73.2018 40.217 73.0363 39.6379C72.8307 38.9439 72.1808 37.247 72.9752 36.6978C73.862 36.0874 74.3672 37.2574 74.7175 37.8992C75.5744 39.4722 76.0067 41.2632 76.3584 43.0332C76.5432 43.1675 76.7295 43.3123 76.9039 43.4571C76.8562 42.9049 76.7638 42.3586 76.6267 41.8213C76.2854 40.5483 76.0067 39.2543 75.6251 37.9917C75.3375 37.0291 74.8009 36.1814 74.6146 35.1874C74.4701 34.3904 74.3061 33.2935 75.2242 32.8995C76.3375 32.4339 77.3167 34.2143 77.6476 34.9904C78.4822 37.0187 79.2348 39.0275 79.9159 41.1184C80.2259 42.0601 80.6477 43.084 80.7416 44.0779C80.755 44.0287 80.7729 43.9809 80.7923 43.9332C80.8191 43.8212 80.8295 43.7063 80.8236 43.5914C80.8027 43.2884 80.761 42.9884 80.6999 42.6914C80.5449 41.7602 80.1216 40.8796 79.8846 39.9797C79.3898 38.0962 78.7296 36.2844 78.2765 34.3904C78.1424 33.8203 77.8324 32.6309 78.6059 32.3622C79.4316 32.0712 80.0083 32.6204 80.524 33.1995C81.5971 34.4009 82.1128 36.2948 82.6389 37.7843C82.8341 38.3335 83.0413 38.8827 83.2365 39.42V39.4304L83.2469 39.4513L83.2678 39.5036L83.2782 39.5349L83.2991 39.5857L83.32 39.6588V39.6692L83.3304 39.6901L83.3393 39.7095L83.4019 39.8349C83.4109 39.8588 83.4213 39.8841 83.4332 39.9065C83.4332 39.9065 83.4019 39.5857 83.3915 39.5648L83.3304 39.223L83.32 39.1931L83.3095 39.1514L83.2887 39.0887L83.2782 39.0588L83.2678 39.0275L83.2574 38.9857C83.2157 38.82 83.1754 38.6439 83.1232 38.4783C82.7566 37.2783 82.46 36.0605 82.2365 34.8248C82.1754 34.483 82.0412 33.7487 82.536 33.6756C83.4332 33.5308 84.1337 34.7009 84.4542 35.3949C85.2888 37.1948 86.1964 39.1931 86.4036 41.2005C86.4036 41.2318 86.414 41.2632 86.414 41.293C86.3976 41.3079 86.3872 41.3244 86.3827 41.3452C86.3827 41.3557 86.3932 41.3452 86.414 41.3348V41.293C86.414 41.2841 86.4244 41.2841 86.4334 41.2736L86.4543 41.2527V41.2423L86.4647 41.2318C86.4751 41.2214 86.4855 41.2109 86.4855 41.2005L86.5377 41.1482C86.5496 41.1363 86.5601 41.1229 86.5675 41.108L86.5884 41.0871C86.6271 41.0512 86.6674 41.0199 86.7121 40.993C86.9088 40.9109 87.5273 40.9632 87.6302 41.19C88.0013 41.9557 87.5884 43.0123 87.6197 43.8197C87.6406 44.554 87.961 45.3405 87.8373 46.0659C87.6615 47.1001 87.2904 48.0732 87.0221 49.0776C86.9088 49.4806 86.888 49.9358 86.6719 50.3089C86.3723 50.8372 85.8357 50.9715 85.4959 51.4163C84.794 52.3476 84.4437 53.6937 84.1963 54.8116C84.3513 55.0802 84.5048 55.3489 84.639 55.6295C85.0801 56.5503 85.4617 57.495 85.7836 58.4651C85.9907 59.0651 86.186 59.665 86.3723 60.2456C86.7956 61.538 87.4856 62.7395 87.888 64.0439C88.7539 66.8482 89.0535 69.6629 89.2502 72.5613C89.4976 76.164 89.2502 80.6966 87.2799 83.8233C85.1442 87.1962 80.0605 88.7901 76.6162 86.535C74.6668 85.2515 74.1511 83.274 73.0363 81.3488C72.7338 80.8175 72.5236 80.2518 72.4074 79.6519C72.3567 79.3564 72.3224 79.0594 72.3045 78.7609C72.3045 78.737 72.3016 78.7131 72.2941 78.6892V78.9474C72.2941 79.0609 72.2837 79.1967 72.2837 79.2892C72.2822 79.6802 72.2554 80.0713 72.2017 80.4593C72.0258 81.6174 71.9021 82.7666 71.7993 83.9262C71.4997 87.3514 72.4282 91.0989 70.3447 94.0794C69.4266 95.3942 67.3654 95.9524 65.9004 96.3046C61.9806 97.2359 57.8657 97.2568 53.8536 97.3612C47.5418 97.5359 40.7978 97.7642 34.6097 96.3882C32.7229 95.9628 30.608 95.4464 28.9269 94.442C28.3233 94.0689 27.7525 93.6525 27.2144 93.1899C27.1533 93.1376 26.4409 92.5884 26.359 92.6511C26.204 92.7645 26.4007 92.278 26.4305 92.0929C26.4827 91.7302 26.4931 91.3676 26.5453 91.0049C26.7405 89.7125 26.8538 88.3976 26.7301 87.1037C26.7092 86.8649 26.6883 86.6276 26.6779 86.3888C26.669 86.2754 26.812 86.0679 26.6988 86.0574C26.5035 86.0276 25.73 87.1245 25.5437 87.2798C24.6256 88.0976 23.3365 88.5528 22.162 88.8424C16.7877 90.1676 11.7547 85.4067 10.1048 80.6757C8.218 75.273 8.48627 69.2182 8.04213 63.5887C7.89757 61.9321 7.88713 60.2769 8.01084 58.6203C7.95271 58.2979 7.91545 57.9741 7.89757 57.6472C7.8618 57.4711 7.8618 57.295 7.89757 57.1189C7.88862 56.9876 7.91992 56.8667 7.99146 56.7562C8.05704 56.6742 8.13156 56.601 8.218 56.5398C7.03165 54.8832 5.67093 53.3415 4.81396 51.479C4.55612 50.9088 4.39218 50.3193 4.15372 49.7492C4.13434 49.7089 3.93761 49.2224 3.96891 49.2119C3.3504 48.3941 3.36083 47.4523 3.32954 46.4793C3.28781 45.0092 3.52478 43.5183 3.72151 42.0706C3.82434 41.2527 3.86608 40.4558 4.08218 39.6588C4.37132 38.5812 4.62915 37.4544 5.37136 36.5739C5.5368 36.3769 6.23728 35.871 6.47425 36.2217L6.49511 36.2426V36.2635C6.49511 36.2739 6.49511 36.2739 6.50555 36.2844C6.50555 36.2948 6.50555 36.2948 6.51598 36.3053C6.51598 36.3157 6.51598 36.3157 6.52641 36.3262L6.58901 36.2739H6.60838L6.62925 36.253L6.66055 36.2321C7.34165 35.6426 7.84689 35.477 8.50713 36.2739C8.63084 36.4187 8.4341 36.7918 8.6204 36.8321C8.6517 36.7709 8.69343 36.7157 8.7441 36.6679L8.7754 36.6366L8.79478 36.6157L8.81564 36.5948H8.82608C8.83651 36.5948 8.83651 36.5843 8.84694 36.5843H8.85737L8.87824 36.5635H8.88867C8.89612 36.562 8.90358 36.559 8.90805 36.553H8.91848L8.92891 36.5426C9.42372 36.2948 10.1361 36.3873 10.2181 36.9978C10.3835 38.2305 9.93045 39.5961 9.68156 40.808C9.62939 41.1199 9.62194 41.4348 9.66218 41.7497C9.67261 41.8213 9.65175 41.987 9.69199 42.0601C9.69199 42.0661 9.69646 42.0706 9.70242 42.0706L9.71285 42.081H9.74415L9.76502 42.09H9.78588C9.78588 41.9766 9.89915 41.7691 9.97069 41.6139L9.98112 41.584L9.99156 41.5631L10.002 41.5527V41.5318L10.0333 41.4184L10.0437 41.3766C10.1972 40.7662 10.3314 40.1244 10.704 39.6066C11.0959 39.0484 11.7144 39.4827 11.8888 40.02C12.0334 40.4662 11.941 41.0035 11.8694 41.4393C11.7442 42.2661 11.6012 43.0944 11.467 43.9123C11.0333 46.5106 11.3433 49.191 13.0752 51.2611C13.4567 51.7058 13.9828 51.9953 14.4061 52.3789C15.2929 53.1654 16.1081 54.0549 16.2929 55.2772C16.3138 55.4011 16.3346 55.525 16.3659 55.6489C16.4896 55.6727 16.6029 55.7205 16.7057 55.7936C16.9382 55.9817 17.0932 56.219 17.1692 56.5085V56.4981L17.1797 56.4667C17.2423 56.2802 17.3034 56.0846 17.3555 55.8981C17.5508 55.0489 17.7058 54.1907 17.8817 53.3311C18.4286 50.6715 19.3869 48.1448 20.9444 45.9092C21.6657 44.8749 22.5123 43.8302 23.5436 43.1048C24.8745 42.184 26.6779 41.8527 28.2055 41.3975C30.1535 40.8169 32.0731 40.0722 33.9599 39.3275C34.8989 38.9543 35.9406 38.7171 36.8274 38.2305C37.3535 37.941 38.5801 37.35 38.8797 36.8127V36.8022L38.9005 36.7605L38.9095 36.7291V36.7187L38.9199 36.7082L38.9304 36.6769V36.6679C39.2925 35.7247 39.1673 33.8308 40.0139 33.2726C40.6741 32.8383 41.6324 33.3233 42.3031 33.5204C42.4447 32.5488 42.5341 31.5727 42.5714 30.5922C42.5818 30.1265 42.6533 29.6594 42.6533 29.1938V28.749C42.6533 28.6565 42.7055 28.4177 42.6533 28.4804C41.4983 27.755 40.8902 26.6581 40.2821 25.4686C40.1495 25.188 40.0332 24.9015 39.9319 24.609C39.9215 24.5776 39.756 24.2269 39.7873 24.2164C39.7083 24.2299 39.6293 24.2329 39.5504 24.2269C39.5056 24.2209 39.4609 24.2164 39.4162 24.2164C37.507 24.2164 36.7857 21.8658 36.7857 20.345C36.7857 19.7137 36.7857 19.0197 37.2492 18.5228C37.507 18.2541 37.7857 18.2646 38.1166 18.3675C38.2194 18.3989 38.2701 18.575 38.3744 18.5437C38.3014 18.472 38.3431 18.0676 38.3223 17.975C38.2403 17.3542 38.2701 16.7124 38.2701 16.0811C38.2686 15.5229 38.3029 14.9677 38.3744 14.4141L38.3849 14.3006C38.2642 13.5857 38.2358 12.8694 38.3014 12.147C38.3744 11.3605 38.364 10.6262 38.364 9.90239V9.8606L38.4564 9.88149ZM8.67108 56.3846L8.63084 56.4055C8.65021 56.3951 8.66064 56.3846 8.67108 56.3846ZM8.86781 56.3115L8.82608 56.3219C8.84098 56.3234 8.85439 56.3205 8.86781 56.3115ZM9.14651 56.2399L9.08391 56.2608L9.16588 56.2399H9.14651ZM9.27021 56.2085L9.17632 56.2294L9.25978 56.2085H9.27021ZM9.68156 56.0951L9.74415 56.0846C9.65175 56.1055 9.54891 56.1354 9.45502 56.1563C9.43117 56.1652 9.40733 56.1712 9.38348 56.1772L9.45502 56.1563C9.52805 56.1354 9.59959 56.1145 9.68156 56.0951ZM9.90959 56.0429C9.87829 56.0533 9.84699 56.0533 9.81569 56.0638L9.84699 56.0533L9.90959 56.0429ZM10.3731 55.9399C10.3314 55.9488 10.2911 55.9488 10.2598 55.9593L10.1466 55.9802C10.1838 55.9682 10.2211 55.9623 10.2598 55.9593L10.3731 55.9399ZM10.6101 55.8981L10.7233 55.8772C10.6622 55.8876 10.5892 55.8981 10.5281 55.9085L10.6101 55.8981ZM11.5386 55.7742L11.4253 55.7847C11.4641 55.7862 11.5013 55.7832 11.5386 55.7742ZM12.3434 55.7011C12.1362 55.7115 11.941 55.7324 11.7353 55.7533C11.941 55.7324 12.1467 55.722 12.3434 55.7011ZM13.6937 55.6086L13.8591 55.5981C13.6534 55.6086 13.4463 55.628 13.251 55.6384L13.5297 55.619C13.5804 55.619 13.6326 55.6086 13.6937 55.6086ZM16.1483 55.6086L16.2005 55.619H16.1796L16.1483 55.6086ZM15.19 55.5563H15.272C15.3748 55.5563 15.4777 55.5668 15.582 55.5668C15.4479 55.5563 15.3242 55.5563 15.19 55.5563ZM42.4581 33.5517L42.4998 33.5621C42.4849 33.5621 42.4715 33.5592 42.4581 33.5517ZM42.4372 33.5412L42.4581 33.5517L42.4164 33.5412H42.4372ZM38.4877 14.2588L38.4773 14.332L38.4877 14.2379V14.2588ZM38.4981 14.1768V14.2066L38.5086 14.135L38.4981 14.1768ZM38.528 14.0111L38.519 14.1036C38.516 14.0723 38.5205 14.0409 38.528 14.0111ZM38.5384 13.9275L38.528 14.0006L38.5384 13.9066V13.9275ZM38.5488 13.8454L38.5384 13.8768L38.5488 13.8036V13.8454ZM38.5801 13.6798L38.5592 13.7827C38.5697 13.741 38.5697 13.7111 38.5801 13.6798ZM38.5905 13.5962L38.5801 13.6798L38.601 13.5857L38.5905 13.5962ZM38.6114 13.5141L38.601 13.5454L38.6114 13.4723V13.5141ZM38.6427 13.3484L38.6218 13.4514C38.6248 13.4171 38.6308 13.3813 38.6427 13.3484ZM59.836 13.2649L59.8464 13.2962V13.2858L59.836 13.2649ZM38.6725 13.1932L38.6621 13.235L38.683 13.1619L38.6725 13.1932ZM59.8151 13.1932L59.8256 13.2246V13.2037L59.8151 13.1932ZM38.7247 12.9335C38.7142 12.9962 38.6934 13.0694 38.683 13.1305L38.7038 13.0276L38.7247 12.9335ZM38.7455 12.8619L38.7351 12.9037L38.756 12.8306L38.7455 12.8619ZM59.7019 12.8097L59.7123 12.841V12.8306L59.7019 12.8097ZM38.8067 12.6037C38.7858 12.6649 38.7768 12.738 38.756 12.7992L38.7768 12.6962L38.8067 12.6037ZM59.681 12.738L59.6914 12.7694V12.7589L59.681 12.738ZM38.8171 12.541L38.8067 12.5828L38.8275 12.5097L38.8171 12.541ZM38.8901 12.2828C38.8692 12.344 38.8588 12.4172 38.838 12.4783L38.8588 12.3858L38.8901 12.2828ZM59.5156 12.3022L59.526 12.3336V12.3231L59.5156 12.3022ZM38.9005 12.2202L38.8901 12.2515L38.9095 12.1784L38.9005 12.2202ZM38.9825 11.962C38.9587 12.0246 38.9423 12.0903 38.9304 12.1575L38.9617 12.0649L38.9825 11.962ZM59.3307 11.9411C59.3412 11.953 59.3486 11.9664 59.3516 11.9814L59.3307 11.9411ZM38.993 11.8993L38.9825 11.9306L39.0034 11.8575L38.993 11.8993ZM59.2994 11.8784C59.3099 11.8993 59.3203 11.9097 59.3307 11.9306L59.2994 11.8784ZM59.2681 11.8261L59.2994 11.8784L59.2786 11.847L59.2681 11.8261ZM39.0749 11.6515C39.0541 11.7127 39.0347 11.7754 39.0138 11.847L39.0436 11.7545L39.0749 11.6515ZM59.2383 11.7754C59.2488 11.7963 59.2577 11.8067 59.2681 11.8261L59.2383 11.7754ZM59.1966 11.7127C59.207 11.7232 59.2175 11.7441 59.2279 11.7545L59.1966 11.7127ZM59.1966 11.7127L59.1862 11.6918L59.1653 11.6605L59.1966 11.7127ZM39.0958 11.5784L39.0854 11.6097L39.1062 11.5366L39.0958 11.5784ZM39.1778 11.3307L39.1167 11.5157L39.148 11.4232L39.1778 11.3307ZM39.1986 11.268L39.1882 11.2993L39.2091 11.2262L39.1986 11.268ZM39.2925 11.0202C39.2717 11.0829 39.2478 11.1456 39.2195 11.2053L39.2508 11.1128L39.2925 11.0202ZM39.3119 10.9575L39.3015 10.9889L39.3328 10.9158L39.3119 10.9575ZM39.3745 10.7919L39.3432 10.8844C39.3521 10.8531 39.3626 10.8217 39.3745 10.7919ZM39.4058 10.7188L39.3745 10.7919L39.4058 10.6994V10.7188ZM39.4252 10.6367L39.4162 10.668L39.446 10.5949L39.4252 10.6367ZM39.4878 10.4815L39.446 10.574C39.4639 10.5456 39.4788 10.5143 39.4878 10.4815ZM39.5295 10.4083L39.4982 10.4815L39.5399 10.3874L39.5295 10.4083ZM39.5593 10.3367L39.5504 10.368L39.5802 10.2949L39.5593 10.3367ZM39.6219 10.1815L39.5802 10.274C39.5906 10.2427 39.6115 10.2128 39.6219 10.1815ZM39.6532 10.0979L39.6219 10.171L39.6636 10.077L39.6532 10.0979ZM39.683 10.0263L39.6741 10.0576L39.7039 9.98447L39.683 10.0263ZM39.756 9.87104L39.7143 9.96358C39.7247 9.93223 39.7456 9.90239 39.756 9.87104ZM57.2055 9.87104L57.2368 9.92179L57.2263 9.89194L57.2055 9.87104ZM39.7873 9.79791L39.756 9.87104L39.7978 9.77702L39.7873 9.79791ZM57.1235 9.72628L57.1443 9.75613L57.1339 9.73672L57.1235 9.72628ZM39.8276 9.71583L39.8082 9.74568L39.838 9.67404L39.8276 9.71583ZM39.9006 9.57106L39.8589 9.66359C39.8678 9.63076 39.8827 9.59942 39.9006 9.57106ZM39.9319 9.48749L39.9006 9.56062L39.9408 9.46659L39.9319 9.48749ZM39.9721 9.41585L39.9513 9.4457L39.9826 9.38451L39.9721 9.41585ZM56.8865 9.28004L56.9789 9.4457L56.9685 9.41585L56.8865 9.28004ZM39.993 9.35317C40.0034 9.32182 40.0243 9.29048 40.0347 9.26063L39.993 9.35317ZM56.7524 9.03229L56.7732 9.07408L56.7315 8.9905L56.7524 9.03229ZM56.7106 8.94871L56.6391 8.81439C56.66 8.85618 56.6793 8.89797 56.7106 8.94871ZM57.2994 10.0576L57.2472 9.95313C57.2681 9.98447 57.2785 10.0263 57.2994 10.0576Z" fill="#D4C9B8"/>
</g>
<mask id="mask1_8_34" style="mask-type:luminance" maskUnits="userSpaceOnUse" x="7" y="0" width="83" height="98">
<path d="M7.63077 0.382065H89.5334V97.809H7.63077V0.382065Z" fill="white"/>
</mask>
<g mask="url(#mask1_8_34)">
<path fill-rule="evenodd" clip-rule="evenodd" d="M17.2736 56.5189C17.3347 56.3115 17.4062 56.1145 17.4584 55.9085C17.6551 55.0593 17.8086 54.1997 17.9845 53.3415C18.5315 50.682 19.4898 48.1553 21.0472 45.9196C21.7701 44.8853 22.6151 43.8391 23.6465 43.1153C24.9774 42.1945 26.7822 41.8631 28.3084 41.4079C30.2578 40.8274 32.1759 40.0826 34.0628 39.3379C35.0017 38.9648 36.0435 38.7275 36.9303 38.241C37.4772 37.941 38.7664 37.3186 39.0138 36.7709C39.4252 35.871 39.2612 33.8621 40.1376 33.2831C40.8187 32.8383 41.8292 33.3756 42.5103 33.5621C43.324 33.78 44.1497 33.7487 44.8919 34.1412L46.0574 33.086C48.5642 32.1339 51.2037 32.4965 53.8029 32.3309C54.8238 32.2577 56.1547 31.9787 57.0817 32.5368C57.8553 33.004 58.0833 34.0173 58.6496 34.6591C59.4127 35.5083 60.3725 35.9008 61.4039 36.347C65.3221 38.0753 69.4072 39.4409 73.2942 41.2736C74.7488 41.9557 76.503 42.9392 77.6058 44.1406C79.6164 46.3136 80.7312 48.6523 82.0412 51.282C82.7939 52.8028 83.9176 54.1281 84.6807 55.6489C85.3931 57.0876 85.9088 58.7442 86.414 60.265C86.8358 61.5589 87.5273 62.7604 87.9297 64.0648C88.7956 66.8691 89.0952 69.6838 89.2905 72.5822C89.5379 76.1834 89.2905 80.7175 87.3217 83.8427C85.1859 87.2171 80.1022 88.811 76.6565 86.5544C74.707 85.2709 74.1914 83.2949 73.078 81.3697C72.774 80.8384 72.5654 80.2727 72.4491 79.6728C72.388 79.3623 72.3358 78.7206 72.3358 78.7206C72.3358 78.7206 72.3254 79.1235 72.3254 79.331C72.3239 79.722 72.2971 80.1115 72.2434 80.4996C72.0676 81.6592 71.9439 82.8084 71.841 83.968C71.5415 87.3932 72.47 91.1407 70.3864 94.1211C69.4683 95.436 67.4056 95.9942 65.9421 96.3464C62.0224 97.2777 57.9074 97.2986 53.8953 97.4015C47.5835 97.5776 40.8395 97.806 34.6515 96.4285C32.7631 96.0046 30.6498 95.4867 28.9686 94.4838C28.365 94.1107 27.7942 93.6928 27.2562 93.2301C27.1936 93.1794 26.4827 92.6302 26.4007 92.6929C26.2457 92.8063 26.4409 92.3198 26.4722 92.1332C26.5244 91.772 26.5348 91.4094 26.5855 91.0467C26.7822 89.7527 26.8955 88.4394 26.7718 87.1454C26.7509 86.9066 26.7301 86.6693 26.7196 86.4306C26.7092 86.3171 26.8538 86.1097 26.7405 86.0992C26.5453 86.0679 25.7717 87.1663 25.5854 87.3215C24.6674 88.1379 23.3782 88.5946 22.2023 88.8841C16.8294 90.2079 11.7964 85.447 10.1466 80.7175C8.25972 75.3148 8.5265 69.26 8.08386 63.629C7.93929 61.9738 7.92886 60.3187 8.05256 58.6606C7.99444 58.3397 7.95718 58.0144 7.93929 57.689C7.90203 57.5129 7.90203 57.3368 7.93929 57.1607C7.93035 57.0294 7.96165 56.9085 8.03169 56.798C8.36256 56.3637 8.97064 56.2697 9.45501 56.1354C10.6831 55.7832 11.9305 55.7115 13.1989 55.619C14.0752 55.5563 14.9828 55.4832 15.8607 55.5563C16.1379 55.5772 16.582 55.5877 16.819 55.7742C17.0411 55.9787 17.1916 56.2279 17.2736 56.5189ZM57.2993 10.0576C57.0713 9.62181 56.8448 9.19795 56.6287 8.81439C56.4305 8.46665 56.2039 8.13831 55.9476 7.83236C55.3231 7.08912 54.6077 6.44737 53.8029 5.90711C50.1515 3.47442 45.0156 3.83708 41.7561 6.74437L41.2509 7.30404C40.7352 7.49059 40.2717 8.78454 40.0347 9.26063C39.2284 10.862 38.7083 12.5515 38.4773 14.332C38.3566 13.6171 38.3282 12.8992 38.3953 12.1784C38.6114 9.74568 38.0644 7.71744 39.5593 5.57578C42.1898 1.8178 46.1498 0.120891 50.6463 0.494003C51.9876 0.607429 53.4825 1.14471 54.7508 1.59095C57.2889 2.47 59.8047 4.98477 60.4754 7.58312C60.7541 8.65918 60.5678 9.72628 60.4962 10.8128C60.4336 11.6411 60.4754 13.1723 59.9805 13.9902C59.8568 13.141 59.6094 12.3022 59.1757 11.6605C58.7629 11.0501 58.0207 10.7814 57.5676 10.2427L57.2993 10.0576Z" fill="#D4C9B8"/>
</g>
<mask id="mask2_8_34" style="mask-type:luminance" maskUnits="userSpaceOnUse" x="3" y="4" width="86" height="55">
<path d="M3.28333 4.20273H88.1354V58.0741H3.28333V4.20273Z" fill="white"/>
</mask>
<g mask="url(#mask2_8_34)">
<path fill-rule="evenodd" clip-rule="evenodd" d="M80.7207 44.1093C80.7341 44.06 80.752 44.0108 80.7714 43.9645C80.7982 43.8511 80.8087 43.7376 80.8027 43.6227C80.7818 43.3198 80.7401 43.0198 80.679 42.7228C80.524 41.79 80.1022 40.9109 79.8638 40.011C79.3689 38.126 78.7087 36.3157 78.2556 34.4218C78.1215 33.8517 77.8115 32.6622 78.585 32.3921C79.4107 32.1025 79.9875 32.6517 80.5031 33.2308C81.5762 34.4322 82.0919 36.3261 82.618 37.8156C82.8147 38.3648 83.0204 38.9126 83.2156 39.4513C83.2261 39.4931 83.3498 39.9588 83.3915 39.9483C83.3915 39.9483 83.3602 39.6274 83.3498 39.6065C83.2991 39.2364 83.2171 38.8752 83.1024 38.52C82.7357 37.3201 82.4391 36.1023 82.2156 34.8665C82.1545 34.5248 82.0203 33.7905 82.5152 33.7174C83.4124 33.5726 84.1128 34.7427 84.4333 35.4352C85.2888 37.2679 86.2068 39.2961 86.3931 41.3452C86.3618 41.3975 86.3514 41.4184 86.3931 41.387V41.3452C86.4796 41.2139 86.5899 41.1079 86.7225 41.0244C86.9192 40.9423 87.5378 40.993 87.6406 41.2214C88.0117 41.987 87.5989 43.0422 87.6301 43.8496C87.651 44.5853 87.97 45.3719 87.8463 46.0957C87.6719 47.1315 87.3008 48.1045 87.0325 49.1075C86.9192 49.5119 86.8984 49.9671 86.6823 50.3402C86.3827 50.8671 85.8462 51.0029 85.5064 51.4476C84.7939 52.3894 84.4541 53.7549 84.1963 54.8832C84.1754 54.9877 84.1441 55.0907 84.1128 55.1937C84.0637 55.1653 84.013 55.1414 83.9593 55.122C83.165 54.822 82.0919 55.2772 81.3392 55.4638C79.3585 55.9488 76.8636 56.3951 75.1407 57.5532C75.0334 57.6234 74.941 57.7099 74.862 57.8129C74.862 57.8054 74.859 57.8025 74.8516 57.8025C74.3985 56.9741 73.9648 56.1354 73.5222 55.2981C73.3046 54.8728 73.0065 54.428 72.9543 53.9415C72.9126 54.0042 72.923 53.7654 72.923 53.7146C72.9126 53.549 72.8932 53.3833 72.8828 53.2177C72.8351 52.6789 72.8768 52.1476 73.0065 51.6237C73.3672 50.1014 73.9141 48.5179 74.1094 46.9658C74.4194 44.5018 73.707 42.0392 73.0065 39.6797C72.7993 38.9857 72.1495 37.2888 72.9439 36.7396C73.8307 36.1291 74.3359 37.2992 74.6877 37.941C75.719 39.8244 76.1303 42.0288 76.5327 44.1301C76.6371 44.6883 76.7697 45.248 76.9143 45.7957C76.9352 45.8793 76.9352 46.1479 76.9977 46.2718C76.9977 46.3449 77.0186 46.3867 77.0484 46.3345C77.0231 46.3211 77.0067 46.3002 76.9977 46.2718C76.9977 46.1584 77.0082 45.9405 76.9977 45.848C76.9664 45.5062 76.9456 45.1644 76.9456 44.8331C76.9352 43.8914 76.8427 42.7944 76.5953 41.884C76.254 40.611 75.9768 39.317 75.5953 38.0544C75.3062 37.0918 74.7696 36.2426 74.5833 35.2486C74.4402 34.4516 74.2748 33.3547 75.1929 32.9622C76.3062 32.4965 77.2854 34.277 77.6163 35.0531C78.4509 37.0813 79.205 39.0887 79.8846 41.1796C80.2051 42.1004 80.6283 43.1153 80.7207 44.1093ZM8.24928 56.601C7.06293 54.9459 5.70072 53.4027 4.84524 51.5401C4.5874 50.9715 4.42197 50.3805 4.185 49.8119C4.16413 49.7701 3.96889 49.2836 4.00019 49.2731C3.38019 48.4568 3.39062 47.5135 3.36082 46.5419C3.31909 45.0719 3.55606 43.5809 3.75279 42.1318C3.85563 41.3139 3.89587 40.5169 4.11346 39.72C4.40111 38.6439 4.65894 37.5156 5.40264 36.6366C5.58745 36.4187 6.39226 35.8501 6.55769 36.3978C7.2999 35.7247 7.81558 35.4978 8.51755 36.3366C8.64125 36.4814 8.44452 36.853 8.63082 36.8948C8.96019 36.2844 10.1972 36.1709 10.312 36.9977C10.4759 38.2305 10.0228 39.5961 9.77543 40.808C9.72178 41.1199 9.71433 41.4348 9.75457 41.7497C9.765 41.8213 9.74413 41.987 9.78587 42.0601C9.7963 42.081 9.86784 42.1109 9.8887 42.1213V42.1318C9.89913 42.1318 9.89913 42.1318 9.8887 42.1213C9.8887 41.987 10.0646 41.687 10.1048 41.5527C10.2807 40.89 10.4044 40.1856 10.8068 39.617C11.1988 39.0588 11.8173 39.4931 11.9931 40.0304C12.1362 40.4766 12.0438 41.0139 11.9723 41.4482C11.8486 42.2765 11.704 43.1048 11.5699 43.9227C11.1362 46.521 11.4462 49.2015 13.178 51.2715C13.5595 51.7163 14.0856 52.0058 14.5089 52.3894C15.3957 53.1759 16.2109 54.0654 16.3957 55.2877C16.4166 55.4116 16.4375 55.5354 16.4688 55.6593C16.2646 55.6175 16.0574 55.5921 15.8502 55.5877C14.9724 55.5041 14.0648 55.5877 13.1884 55.6488C11.9201 55.7429 10.6726 55.8145 9.44457 56.1667C9.0526 56.2697 8.58909 56.3533 8.24928 56.601ZM42.4163 33.5412C42.4432 33.5532 42.47 33.5606 42.4998 33.5621C43.3136 33.78 44.1392 33.7487 44.8814 34.1412L46.0469 33.086C48.5538 32.1339 51.1932 32.4965 53.7925 32.3309C54.8029 32.2577 56.1026 31.9891 57.0311 32.5174C57.0072 32.4219 56.9908 32.3249 56.9789 32.2264C56.8507 31.4667 56.7792 30.7011 56.7628 29.9295C56.7628 28.3042 57.2263 26.7834 57.4946 25.1985C57.6183 24.4746 57.6496 23.4299 57.9789 22.7673C58.052 22.8702 58.5572 22.912 58.7733 22.912C59.0148 22.9105 59.2488 22.8732 59.4768 22.7986C59.7063 22.724 59.9179 22.6165 60.1132 22.4748C60.3084 22.3345 60.4768 22.1658 60.6199 21.9718C60.763 21.7778 60.8733 21.5673 60.9493 21.339C61.2801 20.2823 61.2593 19.2585 61.0626 18.1825C60.9806 17.7258 60.9195 17.2198 60.6199 16.8572C59.4962 15.4707 58.0833 17.478 57.7733 18.6586C57.7748 18.7332 57.7614 18.8063 57.7315 18.875C57.7405 18.8018 57.7539 18.7287 57.7733 18.6586C57.7837 18.4825 57.7628 18.2646 57.7733 18.1616C57.8359 17.4467 57.9283 16.7333 57.9491 16.008C57.9789 14.9006 58.2576 13.7827 58.1861 12.6649C58.0937 11.3396 57.2472 9.95312 56.6495 8.82483C56.4513 8.4771 56.2248 8.14876 55.9684 7.84131C55.3439 7.09957 54.6286 6.45781 53.8238 5.91755C50.1723 3.48486 45.0364 3.84753 41.777 6.75481L41.2717 7.31448C40.7561 7.50103 40.2925 8.79349 40.0556 9.26958C38.9929 11.4023 38.3849 13.7305 38.3849 16.1214C38.3849 16.7542 38.3536 17.3945 38.4355 18.0168C38.446 18.1093 38.4147 18.5123 38.4877 18.5854C38.3953 18.6168 38.3327 18.4407 38.2299 18.4093C37.899 18.3168 37.6218 18.2959 37.3639 18.5645C36.8989 19.0511 36.8989 19.7451 36.8989 20.3868C36.8989 21.9181 37.6307 24.2567 39.5295 24.2567C39.5742 24.2582 39.6189 24.2612 39.6636 24.2672C39.7426 24.2746 39.8216 24.2717 39.9006 24.2567C39.8693 24.2567 40.0347 24.6194 40.0451 24.6507C40.1465 24.9433 40.2627 25.2298 40.3954 25.5104C41.0035 26.6999 41.613 27.7864 42.7681 28.5221C42.8188 28.449 42.7681 28.6983 42.7681 28.7908V29.2355C42.7681 29.7012 42.695 30.1668 42.6846 30.6325C42.6518 31.607 42.5624 32.5771 42.4163 33.5412Z" fill="#D57658"/>
</g>
<path fill-rule="evenodd" clip-rule="evenodd" d="M47.5418 34.783C46.6655 37.0709 46.5939 39.3886 46.7385 41.7288C46.8726 44.0466 47.202 46.3763 47.1096 48.7045C46.728 58.2368 46.0365 67.863 46.6968 77.3848C46.9158 80.8399 47.3242 84.2725 47.9233 87.6827C48.1514 88.9244 48.2855 90.6228 49.0173 91.6989C49.0322 91.7213 49.0545 91.7332 49.0799 91.7377C49.1067 91.7422 49.1305 91.7362 49.1514 91.7198C49.1738 91.7049 49.1857 91.6825 49.1902 91.6571C49.1931 91.6302 49.1872 91.6064 49.1723 91.5855C48.4599 90.5288 48.3362 88.8632 48.1096 87.6424C47.509 84.2382 47.1006 80.813 46.883 77.3639C46.2228 67.8421 46.9129 58.2263 47.2944 48.7045C47.3883 46.3763 47.0574 44.0361 46.9233 41.7184C46.7892 39.4095 46.8517 37.1127 47.7177 34.8561C47.7385 34.7994 47.7206 34.7576 47.667 34.7322C47.6417 34.7203 47.6178 34.7203 47.5925 34.7307C47.5686 34.7412 47.5522 34.7576 47.5418 34.783ZM26.8851 77.146C26.9193 77.1177 26.9283 77.0819 26.9089 77.0416C26.8895 76.9998 26.8567 76.9834 26.812 76.9908C26.7554 77.0072 26.7211 77.0461 26.7092 77.1058C26.7017 77.2326 26.7047 77.361 26.7196 77.4878C26.7614 77.9848 26.7614 78.4818 26.7614 78.9788C26.7822 80.2727 26.7509 81.5562 26.7822 82.8502C26.7927 83.3666 26.9164 84.0083 26.8433 84.5262C26.8404 84.5516 26.8478 84.5754 26.8627 84.5948C26.8791 84.6157 26.9 84.6277 26.9268 84.6292C26.9521 84.6351 26.976 84.6292 26.9968 84.6128C27.0177 84.5948 27.0281 84.574 27.0296 84.5471C27.1012 84.0188 26.9775 83.377 26.967 82.8397C26.9462 81.5562 26.967 80.2623 26.9462 78.9788C26.9357 78.4713 26.9462 77.9744 26.9059 77.4669C26.8806 77.3624 26.8746 77.255 26.8851 77.146ZM70.376 70.936C69.3655 72.7478 69.1181 74.9835 68.2 76.867C66.8184 79.6922 64.4875 81.804 62.3324 84.0188C62.313 84.0382 62.3041 84.0606 62.3041 84.0859C62.3041 84.1128 62.313 84.1352 62.3324 84.1531C62.3503 84.1725 62.3726 84.1814 62.3994 84.1814C62.4248 84.1814 62.4471 84.1725 62.4665 84.1531C64.6425 81.9278 66.9734 79.7966 68.3655 76.961C69.2835 75.076 69.5309 72.8403 70.5414 71.0405C70.5682 70.9897 70.5578 70.9479 70.5101 70.9166C70.449 70.8748 70.3969 70.8852 70.376 70.936ZM68.6635 78.6161C68.2626 80.1891 67.4787 81.8144 66.8184 83.3054C66.808 83.3293 66.808 83.3531 66.8184 83.3785C66.8289 83.4024 66.8453 83.4188 66.8691 83.4292C66.8944 83.4397 66.9183 83.4397 66.9421 83.4292C66.966 83.4188 66.9839 83.4024 66.9928 83.377C67.653 81.8771 68.4474 80.2414 68.8498 78.6579C68.8558 78.6325 68.8513 78.6072 68.8379 78.5848C68.823 78.5624 68.8036 78.549 68.7783 78.543C68.7515 78.537 68.7276 78.5415 68.7053 78.5564C68.6829 78.5698 68.6695 78.5907 68.6635 78.6161ZM72.315 78.9997C72.315 78.8549 72.3254 78.74 72.3254 78.74C72.3329 78.7997 72.3358 78.8579 72.3358 78.9161C72.4595 78.3997 72.4804 77.84 72.5206 77.3117C72.5937 76.3297 72.8202 75.2939 72.9648 74.3104C73.3463 71.6822 73.5326 69.0839 73.7592 66.4452C73.862 65.1916 74.1094 63.9394 74.1824 62.6872L74.2435 61.3828C75.0379 61.3619 75.8323 61.2799 76.5954 61.2172C79.8235 60.9485 82.9891 60.1307 85.8775 58.6815L85.8149 58.5054C82.9384 59.9441 79.7922 60.762 76.5745 61.0321C75.8114 61.0933 75.0275 61.1873 74.2435 61.1978C74.2644 60.659 74.2748 60.1202 74.2748 59.5829C74.2704 59.2367 74.2838 58.8919 74.3166 58.5472C74.3464 58.3203 74.172 58.2576 74.1303 58.5263C74.093 58.877 74.0796 59.2292 74.0885 59.5829C74.0885 60.1202 74.0587 61.1978 74.0587 61.1978L74.0483 61.3828C74.0483 61.3828 74.017 62.2425 73.9857 62.6768C73.9142 63.9289 73.6772 65.1826 73.5624 66.4243C73.3463 69.0212 73.1615 71.5673 72.7889 74.1552C72.7606 74.194 72.7353 74.2358 72.7174 74.2791C72.5922 74.6357 72.4893 74.9984 72.4074 75.3671C72.2732 76.3088 71.9126 77.2296 71.8097 78.1714C71.7993 78.2952 71.7889 79.1549 71.8723 79.4026C71.8902 79.4787 71.9394 79.5205 72.0154 79.5265C72.0571 79.528 72.0869 79.5101 72.1093 79.4758C72.1615 79.4161 72.1957 79.3459 72.2121 79.2683C72.2539 79.1817 72.2881 79.0922 72.315 78.9997ZM17.9532 59.6337L17.9845 59.7486L18.056 59.9859L18.1291 60.2038C15.8503 60.9903 13.1884 61.0112 10.9201 60.7515C9.90809 60.65 8.92146 60.4321 7.96016 60.0993V60.2963C8.91997 60.6157 9.90362 60.8291 10.9096 60.9381C13.1989 61.2067 15.8801 61.1769 18.1902 60.3799L18.1291 60.2038L18.1797 60.3695C19.0367 62.9663 20.0785 65.5124 20.9966 68.0899C21.5227 69.5599 21.9042 71.1748 22.5838 72.5821C22.7373 72.8836 22.9326 73.1523 23.1725 73.3896C23.2336 73.4716 23.3067 73.5866 23.3573 73.6582C23.5332 73.897 23.7091 74.1447 23.8834 74.3835C23.9863 74.5283 24.0802 74.6731 24.183 74.8283C24.5332 75.5835 24.7493 76.3909 25.0176 77.1774C25.1413 77.5401 25.3172 77.8818 25.4513 78.2445C25.4617 78.2639 25.5035 78.4609 25.5437 78.6161C25.5601 78.6788 25.5854 78.737 25.6167 78.7922C25.6376 78.834 25.6719 78.8549 25.7196 78.8549C25.7509 78.8549 25.7911 78.834 25.8224 78.7713C26.0296 78.1818 25.7613 77.4162 25.5646 76.867C25.2039 75.8625 24.7404 74.9104 24.0697 74.0731C23.9252 73.897 23.7702 73.7313 23.6152 73.5761L23.5854 73.5448C23.4706 73.4105 23.2441 73.1612 23.2441 73.1612C23.2277 73.1433 23.2068 73.1329 23.1829 73.1314C23.0116 72.9448 22.8715 72.7374 22.7597 72.5105C22.0786 71.1121 21.697 69.4973 21.1709 68.0391C20.2529 65.4617 19.2111 62.926 18.3556 60.3277C18.4584 60.2859 18.3869 60.1307 18.3243 60.1411H18.3139L18.2945 60.1202C18.2528 59.9859 18.1902 59.8307 18.1499 59.6964C17.8086 58.6203 17.5508 57.5338 17.2825 56.4458C17.2527 56.5503 17.2214 56.6428 17.1901 56.7458C17.1901 56.7562 17.1797 56.7771 17.1797 56.7876C17.4271 57.7398 17.6641 58.6919 17.9532 59.6337ZM22.5734 45.9718C22.6151 46.1285 22.7045 46.2494 22.8417 46.3345C22.943 46.4002 23.0324 46.4793 23.1099 46.5718C23.4095 47.0479 23.7493 47.5344 23.9565 48.0627C24.3171 48.9731 24.3782 49.9567 24.575 50.9088C24.9252 52.6058 25.4513 54.1997 25.6376 55.9399C26.0907 60.1307 26.1429 64.3856 26.204 68.5869C26.2457 71.0405 26.122 73.7104 26.5751 76.1222C26.581 76.1476 26.5944 76.1685 26.6168 76.1819C26.6392 76.1969 26.663 76.2013 26.6898 76.1954C26.7152 76.1894 26.7345 76.176 26.7494 76.1536C26.7629 76.1312 26.7673 76.1058 26.7614 76.0804C26.3068 73.6686 26.4305 71.0196 26.3903 68.5764C26.3172 64.3647 26.2666 60.0993 25.8224 55.9085C25.6376 54.1698 25.1115 52.5655 24.7598 50.8671C24.5645 49.9044 24.5019 48.9119 24.1308 47.9792C23.9147 47.4419 23.5749 46.9449 23.2649 46.4584C23.18 46.342 23.0771 46.2464 22.9549 46.1688C22.858 46.1076 22.7925 46.0211 22.7597 45.9091C22.7537 45.8838 22.7403 45.8644 22.7179 45.8494C22.6956 45.836 22.6717 45.8315 22.6464 45.8375C22.5898 45.8659 22.5659 45.9106 22.5734 45.9718ZM84.7016 64.1991C84.8968 67.6033 84.1129 71.0912 83.6598 74.4552C83.6553 74.5164 83.6821 74.5492 83.7432 74.5567C83.8029 74.5626 83.8371 74.5358 83.8461 74.4761C84.2992 71.1121 85.0727 67.6033 84.8864 64.1886C84.8864 64.1633 84.8774 64.1424 84.8595 64.1259C84.8402 64.1095 84.8193 64.1021 84.794 64.105C84.7329 64.105 84.7016 64.1364 84.7016 64.1991ZM23.1621 72.3344C23.3469 72.5404 23.636 72.6657 23.9356 72.7896C24.2098 72.8836 24.4677 73.012 24.7091 73.1717C24.7568 73.2134 24.8015 73.209 24.8417 73.1612C24.8835 73.1135 24.8805 73.0687 24.8328 73.0269C24.6063 72.8508 24.3067 72.7374 24.0176 72.6135C23.7493 72.5001 23.481 72.3956 23.3171 72.209C23.2754 72.1628 23.2306 72.1598 23.1829 72.1986C23.1591 72.2135 23.1457 72.2344 23.1412 72.2613C23.1382 72.2896 23.1442 72.3135 23.1621 72.3344ZM10.1361 41.3348C10.1153 41.4079 10.1048 41.4691 10.084 41.5318C10.0541 41.6661 9.86785 41.9661 9.86785 42.1004C9.87828 42.1109 9.87828 42.1109 9.86785 42.1109V42.1004C9.83506 42.0885 9.80376 42.0706 9.77545 42.0497C9.46545 42.9392 9.34174 43.9018 9.16588 44.8226C8.91847 46.1375 8.81564 47.3285 8.96021 48.6836C9.03323 49.3671 9.12564 50.1328 9.39391 50.7745C9.44905 50.9297 9.51761 51.0775 9.59958 51.2193C9.65174 51.282 9.70242 51.3028 9.74415 51.2924C9.80227 51.2805 9.82612 51.2461 9.81569 51.1879C9.80674 51.1536 9.78737 51.1297 9.75458 51.1163C9.7367 51.0939 9.72179 51.07 9.71285 51.0432C9.66069 50.9357 9.61597 50.8268 9.57872 50.7118C9.32088 50.091 9.22848 49.3463 9.15694 48.6836C9.01237 47.3479 9.11521 46.1793 9.36261 44.8749C9.57872 43.7361 9.71285 42.5362 10.2285 41.49C10.2509 41.4363 10.2375 41.396 10.1883 41.3661C10.1734 41.3497 10.157 41.3393 10.1361 41.3348ZM9.01237 36.5217C8.90953 36.5694 8.82011 36.6351 8.7441 36.7187C8.08386 38.5305 7.42362 40.3617 6.90795 42.2153C6.62924 43.2183 6.44444 44.2331 6.10314 45.2271C5.91833 45.7539 5.969 46.2823 6.07333 46.8106C6.16573 47.318 6.32073 47.824 6.33117 48.3314C6.33117 48.4657 6.34011 48.612 6.35054 48.7463C6.33117 48.9418 6.32073 49.1388 6.32073 49.3358C6.3103 49.4597 6.3103 49.5835 6.3103 49.6671C6.30732 49.7164 6.32073 49.7612 6.35054 49.8014C6.35203 49.8373 6.34905 49.8716 6.34011 49.9044V49.9253C6.34011 49.9776 6.36097 49.9985 6.37141 49.9985C6.38631 50.0119 6.4042 50.0223 6.42357 50.0298C6.43698 50.0492 6.45487 50.0671 6.47424 50.0805C6.5115 50.097 6.54131 50.091 6.56814 50.0596C6.58155 50.0492 6.58751 50.0358 6.589 50.0193V49.9567C6.58751 49.9373 6.58155 49.9193 6.56814 49.9044L6.54727 49.688C6.55771 49.5835 6.55771 49.4806 6.55771 49.3776C6.54727 49.2433 6.54727 49.1075 6.53684 48.9731C6.53684 48.8702 6.54727 48.7672 6.54727 48.6627C6.55472 48.612 6.55771 48.5597 6.55771 48.5075C6.55771 48.4866 6.55771 48.4762 6.54727 48.4657L6.56814 48.2598C6.56665 48.209 6.5428 48.1747 6.49511 48.1553C6.45487 47.7001 6.33117 47.2449 6.2477 46.7897C6.1553 46.2927 6.10314 45.7957 6.26857 45.2987C6.61881 44.3063 6.79468 43.2809 7.08381 42.2765C7.62929 40.3319 8.33126 38.426 9.01237 36.5217ZM55.7732 43.3227C53.9877 45.2167 51.998 47.027 49.8012 48.3209C49.7789 48.3344 49.764 48.3523 49.758 48.3777C49.752 48.4015 49.755 48.4254 49.7684 48.4463C49.7804 48.4687 49.7997 48.4821 49.8251 48.4881C49.8489 48.4941 49.8728 48.4911 49.8936 48.4762C52.5957 46.8822 54.9788 44.5331 57.0519 42.184C57.4991 41.681 57.9149 41.1527 58.2994 40.6005C58.3411 40.5483 58.3709 40.496 58.4022 40.4557C58.4231 40.4304 58.441 40.402 58.4544 40.3722L58.4648 40.3617C58.5259 40.2901 58.6288 40.1558 58.6288 40.1558C58.6407 40.1364 58.6481 40.1155 58.6496 40.0931C58.7242 39.9931 58.7927 39.8901 58.8568 39.7827C58.8836 39.7349 58.8941 39.6827 58.8866 39.6274C58.8821 39.6036 58.8687 39.5857 58.8464 39.5752C58.8121 39.5603 58.7778 39.5573 58.742 39.5648C58.6556 39.6095 58.5766 39.6648 58.5051 39.7304C58.2994 39.9274 58.1027 40.1244 57.8866 40.311C57.2785 40.8378 56.958 41.6049 56.4632 42.2362C56.2978 42.4422 56.1234 42.6496 55.9684 42.8675C55.8894 42.9765 55.8179 43.0899 55.7523 43.2078C55.73 43.2511 55.7374 43.2899 55.7732 43.3227ZM77.6058 47.5658C77.658 47.7314 77.6982 47.8971 77.7504 48.0732C77.7668 48.1314 77.8055 48.1523 77.8637 48.1359C77.9233 48.118 77.9427 48.0807 77.9263 48.021C77.8741 47.8553 77.8324 47.6792 77.7817 47.5135C77.7638 47.4553 77.7266 47.4344 77.6684 47.4523C77.6088 47.4688 77.588 47.5076 77.6058 47.5658ZM6.48468 36.2426C5.75588 37.847 5.1478 39.4961 4.65896 41.19C4.48458 41.8004 4.18501 42.4422 4.20588 43.0944C4.22674 44.151 4.23718 45.1435 4.16415 46.1793C4.0941 46.4957 4.04939 46.8166 4.03001 47.1419C4.01064 47.2658 4.00021 47.3897 3.97934 47.5135C3.9704 47.621 3.96593 47.7284 3.96891 47.8344C3.97487 47.8837 4.0017 47.912 4.05088 47.918C4.07323 47.9195 4.09261 47.9165 4.11347 47.9075V48.0001C4.10453 48.0299 4.11049 48.0583 4.12987 48.0821C4.14924 48.106 4.17458 48.1165 4.20588 48.115C4.24612 48.1165 4.27295 48.0986 4.28785 48.0627C4.28785 48.0523 4.29828 48.0419 4.29828 48.021C4.29381 47.9628 4.29381 47.9045 4.29828 47.8448C4.31915 47.721 4.34001 47.5867 4.36088 47.4628C4.41155 47.121 4.41155 46.7688 4.45328 46.4166C4.45328 46.3957 4.47415 45.9823 4.46371 45.9091C4.46073 45.8509 4.43093 45.8196 4.37131 45.8166C4.42198 44.9167 4.41155 44.0257 4.39218 43.0944C4.38174 42.4631 4.66939 41.8422 4.84525 41.2527C5.32963 39.5483 5.94218 37.8932 6.68141 36.2844C6.64117 36.3157 6.60242 36.35 6.56814 36.3873C6.54429 36.3366 6.51746 36.2888 6.48468 36.2426ZM4.21631 47.9389C4.22674 47.9389 4.23718 47.9493 4.24761 47.9493C4.25804 47.9598 4.26847 47.9598 4.26847 47.9702C4.25655 47.9478 4.24016 47.9374 4.21631 47.9389ZM80.8549 46.4897C80.8757 46.4658 80.8862 46.439 80.8862 46.4061C80.8757 46.3494 80.84 46.3211 80.7819 46.324C80.7461 46.327 80.7178 46.3434 80.6999 46.3763C80.6745 46.4211 80.6641 46.4688 80.6686 46.521C80.679 46.7584 80.8653 47.3285 80.8862 47.3897C80.9026 47.4479 80.9413 47.4688 80.9994 47.4508C81.0576 47.4344 81.0769 47.3971 81.0606 47.3389C81.0501 47.2867 80.9055 46.8628 80.8653 46.6031C80.8653 46.5613 80.8549 46.5106 80.8549 46.4897ZM81.4317 46.7375C81.4317 46.7479 81.4212 46.7792 81.4212 46.7897C81.3884 46.8628 81.3646 46.9389 81.3497 47.018C81.3497 47.0792 81.381 47.1106 81.4421 47.1106C81.5047 47.1106 81.5345 47.0792 81.5345 47.018C81.5375 46.9852 81.5434 46.9539 81.5554 46.924C81.5777 46.8807 81.5941 46.836 81.6075 46.7897C81.6284 46.6972 81.618 46.6136 81.5345 46.5718C81.5151 46.5554 81.4913 46.5509 81.4659 46.5569C81.4391 46.5628 81.4212 46.5793 81.4108 46.6031C81.3959 46.6255 81.3899 46.6479 81.3944 46.6748C81.3974 46.7016 81.4108 46.7225 81.4317 46.7375ZM84.0726 45.9509C83.9787 46.2509 83.9787 46.5822 83.8968 46.8822C83.8789 46.9419 83.8997 46.9792 83.9594 46.9971C84.0175 47.015 84.0547 46.9942 84.0726 46.9345C84.1546 46.6345 84.1546 46.3032 84.247 46.0032C84.2574 45.9778 84.2574 45.9539 84.244 45.9315C84.2306 45.9077 84.2112 45.8942 84.1859 45.8897C84.1293 45.8763 84.092 45.8972 84.0726 45.9509ZM86.5988 41.1079C86.5437 41.3781 86.5094 41.6497 86.496 41.9258C86.4855 42.5571 86.6093 43.1989 86.6093 43.8302C86.6063 44.2003 86.5824 44.5689 86.5377 44.9376C86.5467 44.9853 86.5511 45.0331 86.5481 45.0823V45.1958C86.5481 45.2062 86.5571 45.2167 86.5571 45.2271C86.5571 45.2271 86.578 45.4331 86.578 45.5375C86.5765 45.7644 86.5496 45.9897 86.496 46.2106C86.4855 46.23 86.4244 46.4897 86.4036 46.5315C86.3887 46.5509 86.3708 46.5688 86.3514 46.5822C86.3112 46.6076 86.2769 46.6002 86.2486 46.5613C86.2322 46.5405 86.2247 46.5166 86.2277 46.4897C86.2173 46.4897 86.2068 46.4793 86.1964 46.4688C86.1741 46.4494 86.1666 46.4255 86.1756 46.3957L86.1964 46.2509C86.2068 46.1584 86.2068 46.0659 86.2173 45.9823C86.2382 45.7136 86.2799 45.4435 86.3201 45.1749C86.3231 45.1017 86.3335 45.0286 86.3514 44.957C86.3618 44.9376 86.3618 44.9271 86.3723 44.9062C86.414 44.5525 86.4349 44.1958 86.4334 43.8391C86.4334 43.2078 86.3097 42.5661 86.3201 41.9348C86.3246 41.7049 86.3484 41.4781 86.3932 41.2527L86.4036 41.3557C86.3723 41.4079 86.3618 41.4288 86.4036 41.3975V41.3557C86.4617 41.2676 86.5273 41.1841 86.5988 41.1079ZM83.0919 39.1305C83.1337 39.2334 83.1754 39.3484 83.2156 39.4513C83.2261 39.4827 83.3498 39.917 83.3915 39.9483C83.5361 40.89 83.7522 41.8213 83.8863 42.7631C83.9281 43.0422 83.9787 43.3227 84.0413 43.6018C84.0696 43.6033 84.0905 43.6167 84.1039 43.6436C84.2679 43.86 84.3513 44.3152 84.4124 44.5749C84.4542 44.7301 84.3811 44.8122 84.3096 44.8331C84.2366 44.854 84.1337 44.8226 84.0831 44.6779C84.0831 44.6674 84.0726 44.6465 84.0726 44.6361L84.0622 44.6271C84.013 44.554 83.9787 44.4734 83.9594 44.3883C83.9355 44.2824 83.9221 44.1764 83.9176 44.0675C83.9072 44.0257 83.9072 43.9958 83.8968 43.954C83.8953 43.9317 83.8982 43.9108 83.9072 43.8914C83.8178 43.5302 83.7492 43.1645 83.7015 42.7944C83.5152 41.5736 83.2156 40.3617 83.0919 39.1305ZM39.0645 36.647C39.0436 36.6873 39.0347 36.7291 39.0138 36.7709C39.0034 36.7918 38.993 36.8022 38.9825 36.8231C39.0645 36.9052 39.1584 36.9873 39.2299 37.0604C40.3239 38.1156 41.5922 39.017 43.0259 39.5439C43.0498 39.5543 43.0736 39.5543 43.0975 39.5454C43.1228 39.5349 43.1392 39.517 43.1496 39.4931C43.1601 39.4692 43.1586 39.4439 43.1496 39.42C43.1392 39.3961 43.1213 39.3782 43.0975 39.3692C41.6846 38.8514 40.4476 37.9604 39.3641 36.9261C39.2717 36.8425 39.1673 36.75 39.0645 36.647ZM83.2365 39.0066C83.2574 39.017 83.2678 39.0484 83.2782 39.0678C83.2887 39.1305 83.2887 39.2036 83.2991 39.2648C83.2782 39.1827 83.2574 39.0991 83.2365 39.0066ZM58.8046 34.8352C57.8553 35.8292 57.0102 36.6978 55.8239 37.4947C55.4006 37.7843 54.9162 37.9604 54.4736 38.2201C54.3186 38.3126 54.1636 38.3962 54.0086 38.4783C53.9415 38.5111 53.873 38.538 53.8029 38.5618L53.782 38.5723C53.7701 38.5768 53.7597 38.5842 53.7507 38.5917L53.8133 38.7573H53.7925C53.8089 38.7648 53.8268 38.7648 53.8446 38.7573C53.864 38.7469 54.0294 38.6857 54.0816 38.6544C54.2455 38.5723 54.4005 38.4783 54.5555 38.3857C54.9997 38.126 55.4841 37.941 55.9163 37.6499C57.113 36.853 57.9685 35.9739 58.9283 34.9695C58.8851 34.9277 58.8434 34.883 58.8046 34.8352ZM37.5696 20.4077V20.2615C37.6143 20.0451 37.6859 19.8391 37.7857 19.6406C37.8066 19.6107 37.817 19.5899 37.8379 19.5794C37.8483 19.569 37.8588 19.569 37.8588 19.5585L37.8692 19.569C37.8811 19.5809 37.8916 19.5943 37.899 19.6107C38.2403 20.2107 38.2507 21.0898 38.3744 21.7524C38.4147 21.9599 38.446 22.1763 38.4773 22.3837C38.4877 22.4464 38.5086 22.6016 38.528 22.6732C38.5175 22.6941 38.5175 22.715 38.528 22.7359C38.5458 22.8001 38.5876 22.827 38.6531 22.818C38.6725 22.818 38.7142 22.7986 38.7247 22.7359C38.7247 22.7046 38.6829 22.4568 38.6725 22.3628C38.6427 22.1464 38.6114 21.939 38.5697 21.7211C38.446 21.039 38.4251 20.1376 38.0749 19.5167C38.0421 19.4436 37.9869 19.3943 37.9094 19.372C37.8379 19.363 37.7768 19.3839 37.7246 19.4346C37.6382 19.5331 37.5741 19.6436 37.5279 19.766C37.4728 19.9167 37.428 20.0719 37.3938 20.2316C37.3833 20.3077 37.3833 20.3823 37.3938 20.4585C37.3997 20.4928 37.4176 20.5196 37.4459 20.5405C37.4728 20.5599 37.5041 20.5674 37.5383 20.5629C37.5652 20.5614 37.5875 20.551 37.6039 20.5301C37.6203 20.5092 37.6263 20.4853 37.6218 20.4585C37.6114 20.448 37.5905 20.4182 37.5696 20.4077ZM60.4038 18.3675C60.4336 18.078 60.3204 17.9019 60.1758 17.8407C59.9701 17.7362 59.6407 17.8512 59.4231 18.1616C59.1072 18.6496 58.8553 19.1705 58.6705 19.7242C58.5468 20.1271 58.4842 20.5316 58.5572 20.8316C58.5706 20.8928 58.6094 20.9166 58.6705 20.9032C58.7316 20.8898 58.7555 20.851 58.742 20.7898C58.6705 20.5107 58.7331 20.148 58.8464 19.7854C59.0222 19.2496 59.2652 18.7451 59.5781 18.275C59.6571 18.1482 59.7674 18.0586 59.9075 18.0064C59.9716 17.9825 60.0327 17.9855 60.0938 18.0168C60.1862 18.0571 60.2384 18.1825 60.2175 18.3675C60.2145 18.4272 60.2429 18.4616 60.2995 18.472C60.3606 18.4631 60.3949 18.4287 60.4038 18.3675ZM56.8969 9.76657C56.9014 9.84418 56.9118 9.92029 56.9282 9.99492C56.9819 10.1501 57.0266 10.3098 57.0624 10.471C57.1682 11.0143 57.2233 11.5635 57.2263 12.1172C57.2889 14.0111 57.2263 15.8946 57.2159 17.778C57.2159 18.4198 57.195 19.0511 57.2263 19.6928C57.2368 19.8898 57.2368 20.0764 57.2368 20.2719C57.2368 20.2928 57.2472 20.5823 57.2472 20.5823C57.3396 20.542 57.4022 20.0033 57.4335 19.9003C57.6183 19.3824 57.979 18.8541 58.289 18.3884C58.5364 18.0168 58.8046 17.7885 59.1549 17.5198C59.3725 17.3542 59.7644 17.2303 59.8777 16.9706C60.0417 16.6288 60.0014 16.1319 60.0312 15.7707C60.146 14.4663 59.918 12.7589 59.1757 11.6411C58.7629 11.0292 58.0207 10.7605 57.5676 10.2233L56.8969 9.76657C56.8865 9.73672 56.8761 9.71583 56.8552 9.73672L56.8969 9.76657ZM43.6236 19.9719C43.5818 19.9585 43.5476 19.9689 43.5207 20.0033C43.5029 20.0242 43.4969 20.0495 43.4999 20.0764C43.4894 20.0868 43.479 20.1167 43.4686 20.1271C43.4611 20.1465 43.4507 20.163 43.4373 20.1794C43.4149 20.2241 43.4239 20.2585 43.4686 20.2824C43.4954 20.3062 43.5267 20.3137 43.561 20.3032C43.5818 20.3032 43.6027 20.2824 43.6236 20.2719C43.634 20.2615 43.634 20.2525 43.6444 20.2525C43.6549 20.2421 43.6549 20.2316 43.6653 20.2212V20.2003C43.6742 20.1898 43.6847 20.1794 43.6847 20.1689C43.6936 20.16 43.6966 20.1495 43.6951 20.1376C43.7041 20.1376 43.71 20.1331 43.716 20.1271C43.7503 20.1152 43.7801 20.0973 43.8084 20.0764C43.9321 19.9824 44.0573 19.9107 44.181 19.8272C44.5938 19.5779 45.0305 19.3809 45.4895 19.2376C46.3823 18.9347 47.2825 18.9078 48.1916 19.1541C48.4897 19.2272 48.7818 19.3167 49.0694 19.4242C49.1589 19.4525 49.2453 19.4914 49.3273 19.5376C49.3467 19.5496 49.3675 19.56 49.3884 19.569C49.4107 19.6033 49.4405 19.6182 49.4808 19.6107C49.5419 19.6272 49.5821 19.6063 49.6045 19.5481C49.6283 19.5033 49.6179 19.469 49.5747 19.4451C49.5643 19.4346 49.451 19.3929 49.4092 19.3615C49.3168 19.3093 49.2229 19.2794 49.1305 19.2376C48.8369 19.1317 48.5374 19.0421 48.2333 18.969C47.2899 18.7048 46.3554 18.7317 45.4284 19.0511C44.9545 19.1988 44.5044 19.3988 44.0767 19.651C43.9425 19.7346 43.8188 19.8167 43.6951 19.9107C43.6951 19.9421 43.6653 19.951 43.6236 19.9719ZM45.8621 9.26959L45.8413 9.28003L45.7891 9.19795C45.7727 9.22034 45.7697 9.24422 45.7787 9.26959C45.7787 9.28003 45.7891 9.29048 45.7995 9.30093L45.8413 9.35316C45.8755 9.39495 45.9068 9.43973 45.9337 9.48748C46.0052 9.6427 46.0499 9.80388 46.0678 9.97402C46.1602 10.5023 46.2839 11.1232 46.0678 11.6306C45.7757 12.2978 45.4135 12.9261 44.9843 13.5141C44.8815 13.6693 44.7578 13.8141 44.6654 13.9589C44.5774 14.0812 44.5253 14.2156 44.5074 14.3663C44.491 14.5155 44.5133 14.6588 44.573 14.7976C44.722 15.1065 44.9292 15.3722 45.1915 15.5946C45.4284 15.8214 45.6863 16.0289 45.8711 16.2781C45.8875 16.299 45.9083 16.3109 45.9352 16.3154C45.9605 16.3199 45.9843 16.3139 46.0052 16.2975C46.0276 16.2826 46.0395 16.2617 46.044 16.2348C46.0469 16.2095 46.0425 16.1856 46.0261 16.1632C45.8159 15.902 45.5819 15.6647 45.3256 15.4498C45.0797 15.2468 44.8874 15.0021 44.7473 14.714C44.6341 14.4454 44.7056 14.2379 44.8204 14.0424C44.9128 13.8962 45.026 13.7514 45.1289 13.5962C45.5536 12.9932 45.9188 12.3545 46.2228 11.6814C46.4493 11.1337 46.3361 10.4815 46.2332 9.91134C46.2109 9.72031 46.1602 9.53823 46.0782 9.36361C46.0469 9.31138 46.0052 9.26063 45.9754 9.2084C45.965 9.19795 45.9337 9.15616 45.9337 9.15616L45.9232 9.14571C45.8994 9.12631 45.8711 9.11885 45.8413 9.12482L45.8621 9.26959ZM47.4598 15.2946C47.512 15.3155 47.5731 15.3349 47.5731 15.3349C47.661 15.3603 47.7505 15.3812 47.8414 15.3976H47.904C47.9546 15.4289 48.0098 15.4423 48.0679 15.4394C48.1007 15.4394 48.1275 15.4289 48.1514 15.408C48.1782 15.3826 48.1916 15.3513 48.1916 15.3155C48.1931 15.2603 48.1752 15.2125 48.1409 15.1692C48.0873 15.117 48.0292 15.0722 47.9651 15.0349C47.8473 14.9752 47.7236 14.9304 47.594 14.9006C47.5448 14.8931 47.4971 14.8961 47.4494 14.911C47.3629 14.9603 47.2974 15.0289 47.2542 15.1185C47.2318 15.1692 47.2318 15.2215 47.2542 15.2737C47.2735 15.3125 47.3048 15.3364 47.3466 15.3453C47.4032 15.3662 47.4449 15.3483 47.4703 15.2946C47.4598 15.3155 47.4598 15.305 47.4598 15.2946ZM42.4685 12.4172C42.4477 12.4172 42.4372 12.4276 42.4268 12.4276C42.4059 12.4381 42.3955 12.4381 42.3866 12.4485C42.3135 12.4679 42.242 12.4992 42.169 12.5201C41.9156 12.6052 41.6578 12.6739 41.3955 12.7276C41.3105 12.7455 41.2241 12.7604 41.1376 12.7694H41.0139C40.9632 12.7783 40.9424 12.8097 40.9424 12.8201C40.9319 12.841 40.9111 12.944 41.0139 12.9544H41.1585C41.2509 12.944 41.3448 12.9246 41.4372 12.9141C41.7055 12.8589 41.9707 12.7903 42.2316 12.7067C42.2882 12.6843 42.3463 12.6679 42.4059 12.6545H42.4164C42.4909 12.6485 42.5624 12.6336 42.634 12.6127C42.7472 12.5828 42.8709 12.5724 42.9946 12.541C43.3553 12.4276 43.6951 12.3231 43.9842 12.0754C44.093 11.9843 44.1825 11.8784 44.2525 11.7545C44.2719 11.7217 44.2898 11.6859 44.3047 11.6515C44.3121 11.6351 44.3151 11.6172 44.3151 11.5993C44.3166 11.5769 44.3106 11.5575 44.2972 11.5411C44.2823 11.5247 44.2644 11.5172 44.2421 11.5157C44.2182 11.5053 44.1944 11.5053 44.1705 11.5157C44.1258 11.5306 44.0841 11.5515 44.0468 11.5784C43.9231 11.665 43.8069 11.7575 43.6951 11.8575C43.3002 12.0739 42.8903 12.2605 42.4685 12.4172ZM41.0869 12.9335C41.081 12.9395 41.0735 12.944 41.0661 12.944H41.0452C41.0661 12.944 41.0765 12.9335 41.0869 12.9335ZM60.3412 12.7992C60.1654 12.3067 59.9582 11.8276 59.7227 11.3605C59.3918 10.7501 58.9805 10.2128 58.5677 9.66359C57.4529 8.15324 56.2263 6.68318 54.6375 5.64742C53.9266 5.17133 53.174 4.77434 52.3796 4.45794C51.9056 4.27138 51.3587 4.19825 50.9041 3.98185C50.849 3.95349 50.8355 3.9117 50.8639 3.85648C50.8907 3.80126 50.9324 3.78783 50.9876 3.81619C51.4302 4.02215 51.9876 4.10572 52.4511 4.28183C53.2589 4.60719 54.025 5.01015 54.7508 5.49221C56.3604 6.53841 57.5974 8.02787 58.7227 9.55017C59.134 10.1083 59.5573 10.6576 59.8881 11.2784C60.0834 11.6456 60.2518 12.0246 60.3934 12.4172C60.3725 12.5515 60.3621 12.6754 60.3412 12.7992ZM52.317 11.9918H52.4109C52.4824 11.9918 52.5555 11.9814 52.627 11.9814H52.6792C53.1233 11.9396 53.56 11.856 53.9877 11.7336C54.0473 11.7157 54.0667 11.6784 54.0503 11.6202C54.0324 11.5605 53.9952 11.5411 53.937 11.5575C53.5182 11.6784 53.092 11.7575 52.6583 11.7963C52.6031 11.7814 52.548 11.7784 52.4929 11.7859C52.4407 11.7963 52.3692 11.8067 52.3066 11.8172C51.9995 11.8247 51.694 11.8082 51.39 11.765C51.1932 11.7336 51.0084 11.7232 50.8117 11.6918C50.6522 11.6754 50.4942 11.6471 50.3378 11.6097C50.3273 11.6097 50.2245 11.5784 50.1515 11.5575C50.1172 11.55 50.0829 11.5471 50.0486 11.5471C49.9965 11.55 49.9681 11.5769 49.9667 11.6306C49.9622 11.6665 49.9726 11.6978 49.9965 11.7232C50.0278 11.7545 50.1008 11.7963 50.1112 11.8067C50.2528 11.9023 50.4078 11.9679 50.5747 12.0023C51.0591 12.1172 51.5956 12.0858 52.08 12.0545C52.1217 12.044 52.2142 12.0127 52.317 11.9918ZM44.3047 8.44277C44.3554 8.48307 44.3449 8.64873 44.3449 8.70097C44.3658 9.06363 44.1899 9.26959 43.9231 9.47704C43.552 9.76209 43.1496 9.98895 42.7159 10.1606C42.1585 10.3874 41.6026 10.4919 41.0869 10.8128C40.8306 10.9635 40.6011 11.1471 40.3954 11.3605C40.3328 11.4336 40.2613 11.5053 40.1987 11.5784C40.1689 11.6202 40.0958 11.7023 40.0958 11.7023C40.0958 11.7023 40.1584 11.5888 40.1897 11.5366C40.2613 11.4232 40.3432 11.3098 40.4163 11.2053C40.6428 10.9053 40.8291 10.574 41.0765 10.2845C41.8903 9.34272 42.7875 8.51441 44.0364 8.298L44.3047 8.44277ZM38.4564 9.71583C38.6621 9.35316 38.8797 9.00095 39.0854 8.66962C39.9319 7.31448 40.9006 6.07277 42.2524 5.16088C44.3971 3.72216 47.0783 3.38039 49.5851 3.47442C49.6462 3.47442 49.6775 3.50576 49.6775 3.56695C49.6775 3.62963 49.6462 3.66097 49.5851 3.66097C47.12 3.56695 44.4791 3.89827 42.3657 5.3161C41.0348 6.20709 40.0854 7.42791 39.2508 8.76365C38.993 9.17706 38.7038 9.63225 38.4564 10.0979V9.71583ZM49.2751 8.31741C49.3467 8.32785 49.4912 8.51441 49.5434 8.56665C49.7595 8.81439 49.9145 9.13527 50.2439 9.23974C51.2141 9.52927 52.2037 9.03229 53.1635 9.26959C53.551 9.37555 53.9147 9.53375 54.256 9.74568C54.3901 9.82926 54.5347 9.91134 54.6584 10.0054C54.6688 10.0158 54.7508 10.0979 54.7717 10.077C54.8134 10.0263 54.5868 9.80836 54.5555 9.78747C54.2664 9.48748 53.9579 9.1875 53.6375 8.90842C52.8327 8.20398 51.5643 7.94579 50.5226 7.94579C50.2141 7.94579 49.7908 7.89355 49.5225 8.09055L49.2751 8.31741Z" fill="black"/>
<path fill-rule="evenodd" clip-rule="evenodd" d="M43.8083 28.4804C43.8188 28.543 44.2421 28.5938 44.2942 28.6042C44.8829 28.7236 45.4776 28.7953 46.0782 28.8221C48.4196 28.9356 51.0591 28.0565 53.1844 27.0834C53.8446 26.7984 54.4765 26.4596 55.0816 26.0686C55.1532 26.0163 55.9162 25.479 55.9162 25.479C55.958 25.5298 55.4319 26.1611 55.3916 26.2238C54.7314 27.1864 54.1114 28.0147 53.2246 28.7803C50.9875 30.7265 46.5015 31.7817 44.0662 29.4012" fill="black" fill-opacity="0.1"/>
<path fill-rule="evenodd" clip-rule="evenodd" d="M44.6862 14.414C44.716 14.5797 45.6654 14.4767 45.81 14.4872C46.6252 14.4976 47.4494 14.4558 48.2229 14.1559C48.4301 14.0723 49.0888 13.638 49.3064 13.7305C49.3571 13.7514 49.2229 14.032 49.2125 14.0514C49.0203 14.3663 48.8027 14.6633 48.5642 14.9424C48.0679 15.4602 47.4807 15.7289 46.9233 16.1423C46.6967 16.308 46.4076 16.6184 46.0991 16.4527C45.8621 16.3393 45.7071 15.9871 45.5208 15.8005C45.3763 15.6558 44.7578 15.2319 44.7995 14.9842" fill="black" fill-opacity="0.1"/>
<path fill-rule="evenodd" clip-rule="evenodd" d="M74.8725 57.8025C74.862 57.792 74.8725 57.792 74.8725 57.8025C74.47 57.0771 74.0989 56.3742 73.7278 55.6489C75.1512 55.8668 76.564 55.9802 78.0082 55.8354C79.8131 55.6593 81.7729 54.9967 83.4019 54.2101C83.7954 54.0131 84.1769 53.7967 84.5465 53.5579C84.4124 54.0146 84.3096 54.4698 84.2067 54.8937C84.1859 54.9967 84.1546 55.1011 84.1233 55.2041C84.0741 55.1757 84.0234 55.1519 83.9698 55.1325C83.1754 54.831 82.1023 55.2877 81.3497 55.4727C79.3689 55.9593 76.874 56.4055 75.1512 57.5637C75.0394 57.6204 74.947 57.701 74.8725 57.8025ZM8.24927 56.601C7.7336 55.8876 7.18663 55.1832 6.66052 54.4803C9.02278 55.5041 12.4671 55.4116 14.5506 54.822C15.0752 54.6713 15.5596 54.4355 16.0037 54.1176C16.2049 54.4758 16.3361 54.8594 16.3957 55.2668C16.4166 55.3907 16.4374 55.5145 16.4687 55.6384C16.2646 55.5966 16.0574 55.5727 15.8502 55.5668C14.9724 55.4832 14.0648 55.5668 13.1884 55.628C11.9201 55.722 10.6726 55.7936 9.44456 56.1458C9.05259 56.2697 8.58908 56.3533 8.24927 56.601Z" fill="black" fill-opacity="0.1"/>
<mask id="mask3_8_34" style="mask-type:luminance" maskUnits="userSpaceOnUse" x="11" y="39" width="79" height="59">
<path d="M11.0646 39.3528H89.5334V97.809H11.0646V39.3528Z" fill="white"/>
</mask>
<g mask="url(#mask3_8_34)">
<path fill-rule="evenodd" clip-rule="evenodd" d="M11.3627 83.2949C13.5909 81.1204 18.4793 82.1771 21.3781 81.0175C22.9147 80.3966 24.4915 79.3414 25.5139 77.943C25.4618 77.84 25.4096 77.7475 25.3798 77.6639C25.1011 77.0326 24.8433 76.3804 24.575 75.7387C24.265 75.0253 23.9565 74.2597 23.5332 73.6075C23.1412 72.9956 22.554 72.5001 22.2753 71.7956C22.0175 71.1539 21.8834 70.4808 21.6866 69.8181C21.5421 69.3316 21.2336 68.6704 21.2231 68.1735C21.2231 67.9869 21.4497 67.9765 21.5838 67.8839C21.9862 67.6033 22.4199 67.3451 22.8014 67.0452C23.9043 66.1855 25.0281 65.1095 25.7196 63.8886C25.8642 63.629 26.2248 63.0708 26.2561 62.6977V62.5634C26.2666 62.6081 26.2666 62.6529 26.2561 62.6977L26.7092 74.6417C27.3084 74.2791 28.9686 74.5283 29.5454 74.5701C31.8973 74.7656 34.3623 74.7044 36.7231 74.6626C43.5923 74.5596 50.4302 73.4522 56.5154 70.1092C61.8674 67.169 70.8708 61.3724 74.017 56.1876L74.8323 57.7189L74.254 58.5785C74.3017 60.6545 74.1884 62.7201 73.9142 64.7781C75.4612 67.5735 76.3062 73.1418 80.0084 74.2791C82.6806 75.0969 85.7225 74.0522 88.2278 73.1926C88.5691 73.0791 88.9402 72.9344 89.3218 72.8209C89.5379 76.3804 89.2696 80.7996 87.3306 83.8635C85.1964 87.238 80.1127 88.8319 76.6669 86.5753C74.7175 85.2918 74.2018 83.3158 73.0885 81.3906C72.7845 80.8593 72.5758 80.2936 72.4596 79.6922C72.397 79.3817 72.3463 78.74 72.3463 78.74C72.3463 78.74 72.3359 79.1444 72.3359 79.3519C72.3344 79.7429 72.3061 80.1324 72.2539 80.5205C72.078 81.6801 71.9543 82.8293 71.8515 83.9874C71.5519 87.4141 72.4804 91.1601 70.3969 94.142C69.4788 95.4554 67.4161 96.015 65.9525 96.3673C62.0328 97.2985 57.9179 97.3194 53.9058 97.4224C47.594 97.5985 40.8485 97.8269 34.6619 96.4493C32.7736 96.0255 30.6602 95.5076 28.9791 94.5032C28.3755 94.1316 27.8047 93.7137 27.2666 93.251C27.204 93.2003 26.4931 92.6511 26.4111 92.7138C26.2561 92.8272 26.4514 92.3406 26.4827 92.1541C26.5348 91.7914 26.5453 91.4303 26.596 91.0676C26.7927 89.7736 26.906 88.4588 26.7823 87.1663C26.7614 86.9275 26.7405 86.6902 26.7301 86.4515C26.7197 86.338 26.8642 86.1306 26.751 86.1201C26.5542 86.0888 25.7807 87.1857 25.5959 87.3409C24.6778 88.1588 23.3886 88.614 22.2127 88.905C17.7982 89.9915 13.643 87.0096 11.3627 83.2949ZM58.599 48.7358C57.2472 50.4432 55.3291 51.8192 53.6166 53.1341C50.0591 55.8667 46.2333 58.4233 42.2107 60.4306C40.777 61.1455 39.3536 61.7246 37.8066 62.1082C37.6516 62.1499 35.7544 62.4499 35.7544 62.4902C35.7439 62.6559 37.1061 62.4902 37.2194 62.4798C38.7769 62.2947 40.3328 61.8903 41.8292 61.4246C47.4092 59.6964 52.5644 56.1354 56.3604 51.7058L58.599 48.7358ZM38.6517 40.0199C38.7664 40.5065 39.0138 40.9826 39.2404 41.4288C39.9781 42.9511 40.9364 44.3167 42.1183 45.5271C42.2614 45.6823 43.4477 46.4688 43.4269 46.6867C43.3345 46.6494 43.245 46.6046 43.1586 46.5509C43.0155 46.4479 42.8605 46.3554 42.716 46.2405C42.2823 45.9091 41.8605 45.5375 41.4372 45.1853C40.0348 44.0257 39.0138 42.5049 38.683 40.6617L38.6532 40.0199C38.6532 40.008 38.6502 39.9976 38.6427 39.9901C38.6427 39.9692 38.5697 39.6274 38.6323 39.617L38.6517 40.0199Z" fill="black" fill-opacity="0.1"/>
</g>
</svg>
